<svg width="548" height="179" viewBox="0 0 548 179" fill="none" xmlns="http://www.w3.org/2000/svg">
<g clip-path="url(#clip0_111_17)">
<path d="M178.04 172.22C170.85 168.582 164.855 162.956 160.77 156.01C156.864 148.907 154.877 140.908 155.005 132.803C155.133 124.698 157.371 116.766 161.5 109.79C165.771 102.819 171.817 97.1078 179.02 93.2399C186.733 89.0727 195.385 86.9519 204.15 87.0799C214.31 87.0799 223.013 89.2166 230.26 93.4899C237.206 97.446 242.886 103.293 246.64 110.35C250.289 117.208 252.131 124.883 251.99 132.65V132.76C251.865 134.709 251.003 136.537 249.578 137.873C248.153 139.209 246.273 139.951 244.32 139.95H178.53C178.666 142.749 179.447 145.479 180.812 147.927C182.178 150.374 184.09 152.473 186.4 154.06C191.2 157.52 197.333 159.25 204.8 159.25C209.608 159.309 214.37 158.312 218.75 156.33C220.236 155.648 221.676 154.87 223.06 154C225.103 152.682 227.475 151.961 229.906 151.919C232.337 151.876 234.732 152.514 236.82 153.76C238.034 154.483 239.048 155.497 239.771 156.711C240.493 157.926 240.901 159.301 240.956 160.713C241.012 162.125 240.714 163.528 240.089 164.795C239.465 166.063 238.533 167.154 237.38 167.97C234.573 169.906 231.593 171.579 228.48 172.97C220.777 176.407 212.425 178.149 203.99 178.08C194.15 178.067 185.5 176.113 178.04 172.22ZM228.64 125.52C228.533 122.054 227.467 118.686 225.56 115.79C223.509 112.668 220.688 110.126 217.37 108.41C213.535 106.442 209.269 105.466 204.96 105.57C198.885 105.402 192.935 107.318 188.1 111C183.443 114.636 180.178 119.763 178.85 125.52H228.64Z" fill="url(#paint0_linear_111_17)"/>
<path d="M328.23 127.28L312.86 167.44C312.014 169.648 310.519 171.548 308.571 172.889C306.623 174.23 304.315 174.948 301.95 174.95H292.24C289.765 174.951 287.354 174.164 285.355 172.705C283.356 171.245 281.873 169.188 281.12 166.83L261.49 105.44C260.931 103.689 260.794 101.83 261.089 100.016C261.384 98.2016 262.103 96.4825 263.187 94.9984C264.272 93.5142 265.691 92.3071 267.33 91.475C268.969 90.6429 270.782 90.2095 272.62 90.2099C275.162 90.2102 277.635 91.0406 279.662 92.5748C281.689 94.1091 283.159 96.2633 283.85 98.7099L298.15 149.24L316.92 97.8799C317.744 95.6264 319.241 93.6813 321.21 92.309C323.178 90.9367 325.521 90.2038 327.92 90.2099H335.92C338.325 90.2075 340.673 90.9477 342.641 92.3294C344.61 93.7112 346.104 95.6671 346.92 97.9299L364.92 147.78L381.31 98.1499C382.083 95.8218 383.569 93.7962 385.558 92.3603C387.547 90.9243 389.937 90.151 392.39 90.1499H392.81C394.693 90.1502 396.549 90.6059 398.218 91.4782C399.887 92.3506 401.321 93.6136 402.396 95.1597C403.472 96.7058 404.158 98.4891 404.395 100.357C404.633 102.226 404.415 104.124 403.76 105.89L380.96 167.36C380.125 169.601 378.623 171.533 376.656 172.894C374.689 174.254 372.352 174.979 369.96 174.97H359.63C357.245 174.97 354.918 174.239 352.96 172.877C351.003 171.515 349.509 169.586 348.68 167.35L333.84 127.3C333.626 126.73 333.244 126.239 332.744 125.891C332.244 125.543 331.651 125.356 331.042 125.354C330.433 125.352 329.838 125.535 329.336 125.879C328.834 126.223 328.448 126.711 328.23 127.28Z" fill="url(#paint1_linear_111_17)"/>
<path d="M433.64 91.7H434.8C436.311 91.6987 437.808 91.9952 439.204 92.5725C440.6 93.1499 441.869 93.9967 442.938 95.0647C444.007 96.1327 444.855 97.4009 445.434 98.7968C446.012 100.193 446.31 101.689 446.31 103.2V165.2C446.31 166.687 446.017 168.159 445.448 169.532C444.879 170.905 444.046 172.153 442.994 173.204C441.943 174.256 440.695 175.089 439.322 175.658C437.949 176.227 436.477 176.52 434.99 176.52H433.89C432.347 176.52 430.82 176.216 429.395 175.625C427.97 175.035 426.675 174.169 425.585 173.078C424.495 171.987 423.63 170.691 423.041 169.266C422.451 167.84 422.149 166.313 422.15 164.77V103.22C422.147 100.169 423.356 97.242 425.511 95.0818C427.665 92.9217 430.589 91.7053 433.64 91.7ZM442.59 138.25C442.059 138.251 441.533 138.143 441.045 137.932C440.558 137.721 440.119 137.411 439.757 137.022C439.394 136.634 439.116 136.174 438.939 135.673C438.763 135.172 438.691 134.64 438.73 134.11C439.177 126.29 441.068 118.62 444.31 111.49C447.883 104.03 452.453 98.3633 458.02 94.49C463.233 90.7119 469.502 88.6689 475.94 88.65C481.584 88.5305 487.13 90.1428 491.83 93.27C496.554 96.5881 500.17 101.25 502.21 106.65C503.251 109.234 504.038 111.913 504.56 114.65C504.853 116.226 504.794 117.847 504.389 119.398C503.983 120.948 503.241 122.39 502.214 123.621C501.188 124.852 499.902 125.842 498.45 126.519C496.997 127.196 495.413 127.545 493.81 127.54H492.7C489.938 127.511 487.26 126.587 485.067 124.906C482.875 123.226 481.286 120.88 480.54 118.22C480.01 116.406 479.208 114.683 478.16 113.11C475.72 109.543 472.177 107.76 467.53 107.76C463.676 107.752 459.933 109.049 456.91 111.44C453.482 114.201 450.858 117.83 449.31 121.95C447.709 125.995 446.754 130.268 446.48 134.61C446.414 135.593 445.979 136.516 445.261 137.191C444.543 137.866 443.596 138.245 442.61 138.25H442.59Z" fill="url(#paint2_linear_111_17)"/>
<path d="M535.45 54C538.654 54 541.726 55.2727 543.992 57.5381C546.257 59.8036 547.53 62.8762 547.53 66.08V162.9C547.53 166.104 546.257 169.176 543.992 171.442C541.726 173.707 538.654 174.98 535.45 174.98C532.246 174.98 529.174 173.707 526.908 171.442C524.643 169.176 523.37 166.104 523.37 162.9V66.08C523.37 62.8762 524.643 59.8036 526.908 57.5381C529.174 55.2727 532.246 54 535.45 54Z" fill="url(#paint3_linear_111_17)"/>
</g>
<path d="M111.359 55.6994C100.394 57.0809 92.3397 66.655 92.3397 77.6382V108.82L36.4422 60.5072C27.9923 53.2057 15.241 53.0814 7.01341 60.6315C1.81558 65.4047 -0.442828 71.9877 0.0713948 78.3566L0.00190523 156.296C0.00190523 168.233 9.82773 178 21.8355 178C33.8433 178 43.6692 168.233 43.6692 156.296L43.7387 124.32L99.3998 172.432C107.815 179.706 120.483 179.844 128.717 172.37C133.422 168.094 135.743 162.361 135.819 156.621C135.924 155.75 136 154.873 136 153.982V77.2168C136 64.3616 124.604 54.0208 111.359 55.6925V55.6994Z" fill="url(#paint4_linear_111_17)"/>
<g opacity="0.47">
<path d="M0.492498 85.8721L0.430176 155.963C0.430176 167.929 10.2216 177.721 22.1874 177.721C34.1532 177.721 43.9446 167.929 43.9446 155.963L44.0139 123.909L44.0485 123.937V123.715L0.492498 85.8721Z" fill="url(#paint5_linear_111_17)"/>
</g>
<g opacity="0.47">
<path d="M135.939 146.192L136.001 76.1012C136.001 64.1354 126.209 54.344 114.244 54.344C102.278 54.344 92.4864 64.1354 92.4864 76.1012L92.4172 108.155L92.3826 108.128V108.349L135.932 146.199L135.939 146.192Z" fill="url(#paint6_linear_111_17)"/>
</g>
<path d="M114 42C125.598 42 135 32.598 135 21C135 9.40202 125.598 0 114 0C102.402 0 93 9.40202 93 21C93 32.598 102.402 42 114 42Z" fill="url(#paint7_linear_111_17)"/>
<defs>
<linearGradient id="paint0_linear_111_17" x1="203.5" y1="87.0799" x2="203.5" y2="178.06" gradientUnits="userSpaceOnUse">
<stop stop-color="#36B5A0"/>
<stop offset="0.16" stop-color="#36A89F"/>
<stop offset="0.45" stop-color="#37879B"/>
<stop offset="0.84" stop-color="#395295"/>
<stop offset="1" stop-color="#3A3A93"/>
</linearGradient>
<linearGradient id="paint1_linear_111_17" x1="332.7" y1="90.1599" x2="332.7" y2="174.98" gradientUnits="userSpaceOnUse">
<stop stop-color="#36B5A0"/>
<stop offset="0.16" stop-color="#36A89F"/>
<stop offset="0.45" stop-color="#37879B"/>
<stop offset="0.84" stop-color="#395295"/>
<stop offset="1" stop-color="#3A3A93"/>
</linearGradient>
<linearGradient id="paint2_linear_111_17" x1="463.46" y1="88.62" x2="463.46" y2="176.52" gradientUnits="userSpaceOnUse">
<stop stop-color="#36B5A0"/>
<stop offset="0.16" stop-color="#36A89F"/>
<stop offset="0.45" stop-color="#37879B"/>
<stop offset="0.84" stop-color="#395295"/>
<stop offset="1" stop-color="#3A3A93"/>
</linearGradient>
<linearGradient id="paint3_linear_111_17" x1="535.45" y1="54" x2="535.45" y2="174.98" gradientUnits="userSpaceOnUse">
<stop stop-color="#36B5A0"/>
<stop offset="0.16" stop-color="#36A89F"/>
<stop offset="0.45" stop-color="#37879B"/>
<stop offset="0.84" stop-color="#395295"/>
<stop offset="1" stop-color="#3A3A93"/>
</linearGradient>
<linearGradient id="paint4_linear_111_17" x1="67.9975" y1="54.159" x2="67.9975" y2="174.746" gradientUnits="userSpaceOnUse">
<stop stop-color="#3BBCA6"/>
<stop offset="0.17" stop-color="#3BAFA5"/>
<stop offset="0.48" stop-color="#3E8EA2"/>
<stop offset="0.89" stop-color="#42589F"/>
<stop offset="1" stop-color="#44499E"/>
</linearGradient>
<linearGradient id="paint5_linear_111_17" x1="35.4412" y1="98.5926" x2="-13.2737" y2="190.711" gradientUnits="userSpaceOnUse">
<stop offset="0.16" stop-color="#2E486B"/>
<stop offset="0.23" stop-color="#2F5572" stop-opacity="0.87"/>
<stop offset="0.46" stop-color="#357C88" stop-opacity="0.49"/>
<stop offset="0.68" stop-color="#399798" stop-opacity="0.22"/>
<stop offset="0.86" stop-color="#3CA8A2" stop-opacity="0.06"/>
<stop offset="1" stop-color="#3DAFA6" stop-opacity="0"/>
</linearGradient>
<linearGradient id="paint6_linear_111_17" x1="100.99" y1="133.465" x2="149.705" y2="41.3464" gradientUnits="userSpaceOnUse">
<stop offset="0.16" stop-color="#2E486B"/>
<stop offset="0.23" stop-color="#2F5572" stop-opacity="0.87"/>
<stop offset="0.46" stop-color="#357C88" stop-opacity="0.49"/>
<stop offset="0.68" stop-color="#399798" stop-opacity="0.22"/>
<stop offset="0.86" stop-color="#3CA8A2" stop-opacity="0.06"/>
<stop offset="1" stop-color="#3DAFA6" stop-opacity="0"/>
</linearGradient>
<linearGradient id="paint7_linear_111_17" x1="113.771" y1="-19.2548" x2="115.059" y2="197.326" gradientUnits="userSpaceOnUse">
<stop stop-color="#3BBCA6"/>
<stop offset="0.17" stop-color="#3BAFA5"/>
<stop offset="0.48" stop-color="#3E8EA2"/>
<stop offset="0.89" stop-color="#42589F"/>
<stop offset="1" stop-color="#44499E"/>
</linearGradient>
<clipPath id="clip0_111_17">
<rect width="392.53" height="124.06" fill="white" transform="translate(155 54)"/>
</clipPath>
</defs>
</svg>
